# xmcd
#
# Track frame offsets:
# 150
# 9876
# 17918
# 27696
# 37397
# 47199
# 56168
# 65492
# 75022
# 84704
# 94059
# 102433
# 112093
# 121705
# 130951
# 139885
# 149692
# 158632
# 168326
# 177949
# 187114
# 196178
# 205555
# 214122
# 223610
# 231454
# 241118
# 247785
# 257477
# 267304
# 276222
# 285187
#
# Disc length: 3924 seconds
#
# Revision: 0
# Processed by: cddbd v1.4PL0 Copyright (c) Steve Scherf et al.
# Submitted via: Audion 3.0.2 (http://www.panic.com/audion/)
#
DISCID=d10f5220
DTITLE=léo - rap me
DYEAR=1900
DGENRE=
TTITLE0=3
TTITLE1=2
TTITLE2=3
TTITLE3=4
TTITLE4=5
TTITLE5=6
TTITLE6=7
TTITLE7=8
TTITLE8=9
TTITLE9=10
TTITLE10=11
TTITLE11=12
TTITLE12=13
TTITLE13=14
TTITLE14=15
TTITLE15=16
TTITLE16=17
TTITLE17=18
TTITLE18=19
TTITLE19=léo song and florian
TTITLE20=21
TTITLE21=22
TTITLE22=23
TTITLE23=24
TTITLE24=2
TTITLE25=2
TTITLE26=2
TTITLE27=654
TTITLE28=6
TTITLE29=4
TTITLE30=1
TTITLE31=2
EXTD=
EXTT0=
EXTT1=
EXTT2=
EXTT3=
EXTT4=
EXTT5=
EXTT6=
EXTT7=
EXTT8=
EXTT9=
EXTT10=
EXTT11=
EXTT12=
EXTT13=
EXTT14=
EXTT15=
EXTT16=
EXTT17=
EXTT18=
EXTT19=
EXTT20=
EXTT21=
EXTT22=
EXTT23=
EXTT24=
EXTT25=
EXTT26=
EXTT27=
EXTT28=
EXTT29=
EXTT30=
EXTT31=
PLAYORDER=
